PathFileType	3	(X/Y/Z)	D:\MSKbioDyn\WearableRobot\20250106\S011\S011_static\S011_walking01.trc
DataRate	CameraRate	NumFrames	NumMarkers	Units	OrigDataRate	OrigDataStartFrame	OrigNumFrames
200.0	200.0	6	39	mm	200.0	234	1867	
Frame#	Time	LFHD			RFHD			LBHD			RBHD			C7			T10			CLAV			STRN			RBAK			LSHO			LUPA			LELB			LFRM			LWRA			LWRB			LFIN			RSHO			RUPA			RELB			RFRM			RWRA			RWRB			RFIN			LASI			RASI			LPSI			RPSI			LTHI			LKNE			LTIB			LANK			LHEE			LTOE			RTHI			RKNE			RTIB			RANK			RHEE			RTOE			
		X1	Y1	Z1	X2	Y2	Z2	X3	Y3	Z3	X4	Y4	Z4	X5	Y5	Z5	X6	Y6	Z6	X7	Y7	Z7	X8	Y8	Z8	X9	Y9	Z9	X10	Y10	Z10	X11	Y11	Z11	X12	Y12	Z12	X13	Y13	Z13	X14	Y14	Z14	X15	Y15	Z15	X16	Y16	Z16	X17	Y17	Z17	X18	Y18	Z18	X19	Y19	Z19	X20	Y20	Z20	X21	Y21	Z21	X22	Y22	Z22	X23	Y23	Z23	X24	Y24	Z24	X25	Y25	Z25	X26	Y26	Z26	X27	Y27	Z27	X28	Y28	Z28	X29	Y29	Z29	X30	Y30	Z30	X31	Y31	Z31	X32	Y32	Z32	X33	Y33	Z33	X34	Y34	Z34	X35	Y35	Z35	X36	Y36	Z36	X37	Y37	Z37	X38	Y38	Z38	X39	Y39	Z39	
234	1.16	212.82568	1654.5342	-302.48642	200.06131	1646.4169	-170.34618	98.77195	1578.103	-311.43265	90.665108	1563.499	-174.64265	56.590061	1445.521	-248.70726	22.709305	1137.6849	-237.37727	190.10419	1369.682	-249.08072	232.40059	1171.4685	-254.18163	-1.9028925	1256.5951	-185.46336	120.97914	1394.9465	-426.84616	107.44775	1197.4233	-503.12936	161.84988	1046.0105	-506.97864	266.93387	980.88556	-508.37152	348.83405	900.86731	-438.35901	327.98679	884.51556	-502.75095	393.30225	843.48212	-494.72244	113.21217	1386.7455	-70.272415	60.92786	1205.071	-11.915567	28.390902	1039.9016	-18.009882	57.533855	918.12146	13.625277	87.651207	807.4986	-39.804321	37.904537	810.07764	13.043168	70.43679	731.39032	22.26396	214.63409	920.92993	-376.92374	228.74652	945.95734	-131.62903	17.342468	938.80902	-280.81076	21.307405	936.76093	-207.65938	158.74048	709.18054	-434.7894	157.07437	458.96622	-425.63248	36.361046	386.35773	-431.04907	-170.63567	235.58316	-379.07303	-247.70076	276.57266	-309.93277	-133.38078	94.222321	-362.52283	223.13789	737.43256	-83.33654	246.4697	480.56583	-134.90932	201.96542	305.51205	-119.69764	178.09917	84.393112	-177.23711	95.71151	37.332157	-219.00052	324.02676	54.027721	-223.02724
235	1.165	212.89842	1655.1667	-302.19934	200.29431	1647.1779	-170.1993	98.957329	1578.9672	-311.31924	90.829643	1564.3472	-174.55215	56.663647	1446.4362	-248.37201	22.37698	1138.6144	-236.83589	190.02547	1370.5264	-249.12404	232.09201	1172.2729	-254.25482	-1.8987949	1257.6339	-184.7887	120.46767	1395.8102	-426.68509	105.64016	1198.0753	-502.65253	158.92087	1046.4362	-506.41095	262.85831	979.56976	-508.44241	343.2193	897.74847	-439.00369	322.38419	882.31628	-503.42346	386.90665	839.81274	-495.49155	113.71428	1387.7291	-70.086937	62.342339	1205.7998	-11.410845	30.873098	1040.197	-17.520906	61.734642	918.61261	13.827326	92.180412	808.29102	-39.845222	42.981499	810.35468	13.460668	76.274117	732.276	22.689308	214.25964	922.06567	-376.6712	228.29993	946.45563	-131.6902	17.033131	939.66376	-280.56784	20.907368	937.66766	-207.47423	161.13586	710.90143	-434.37906	162.23996	460.49057	-425.20966	41.916584	387.98999	-430.80704	-164.26552	235.77791	-379.64523	-242.00626	274.47153	-309.91342	-124.36782	95.007767	-364.83063	222.23059	737.84033	-83.451462	243.20219	480.37628	-134.81033	198.24898	305.78549	-119.6355	172.67624	84.385765	-177.18172	90.66748	36.787907	-219.06769	318.49271	53.867336	-222.83363
236	1.17	213.0769	1655.9685	-302.0983	200.44209	1647.9246	-170.18654	99.236305	1579.8389	-311.12595	91.002159	1565.1294	-174.43872	56.803154	1447.3442	-247.97488	22.158323	1139.4229	-235.99783	189.98196	1371.3257	-249.13945	231.83742	1173.1157	-254.31216	-1.884973	1258.7311	-184.03754	119.87228	1396.7296	-426.63464	103.77848	1198.7126	-502.14581	155.9619	1046.85	-505.9046	258.93707	978.34644	-508.54205	338.36563	895.35657	-439.78784	316.37839	879.6897	-503.55148	380.25446	836.17468	-496.3226	114.2356	1388.6326	-69.937767	64.299904	1206.3988	-11.067425	34.001381	1040.5938	-16.862513	65.785446	919.24341	14.152124	96.965942	809.00024	-39.797066	48.136791	810.79736	13.738692	82.305252	733.1225	22.890713	213.72565	923.26385	-376.87018	227.78381	947.06067	-131.64104	16.679518	940.53741	-280.48105	20.441727	938.6684	-207.35684	161.95256	712.68134	-435.0365	167.23834	462.18173	-425.14166	47.423038	389.57635	-430.58804	-157.65092	235.69077	-380.2363	-236.19186	272.2543	-310.45779	-115.60551	95.538658	-366.7854	220.2328	737.63641	-83.925797	239.65247	480.00037	-135.10277	194.28526	305.77567	-119.65098	167.27213	84.627457	-176.91919	85.067207	36.844822	-219.00134	312.80499	53.624619	-222.86104
237	1.175	213.31865	1656.9224	-302.16415	200.67296	1648.6829	-169.94579	99.174965	1580.7747	-311.11026	91.124748	1565.9573	-174.3437	56.944042	1448.1122	-247.62537	21.802973	1140.4142	-235.40938	189.87498	1372.1664	-249.2094	231.57648	1173.9833	-254.34464	-1.8513006	1259.7855	-183.29369	119.31253	1397.6183	-426.47372	101.80792	1199.4528	-501.7475	152.91942	1047.3279	-505.2948	254.65739	977.09656	-508.62479	333.09888	892.48035	-440.36798	310.60696	877.6554	-504.41843	373.4729	832.5636	-497.09839	114.80559	1389.6254	-69.781868	66.129578	1207.2091	-10.347317	36.584137	1040.9404	-16.357889	70.054268	919.7981	14.295554	102.24215	810.17639	-39.870968	53.383053	811.28247	13.983564	88.416168	733.99438	22.783298	212.8512	924.39008	-377.21133	227.22743	947.59265	-131.65778	16.290215	941.4342	-280.33975	20.005327	939.58545	-207.27469	164.39316	714.19696	-434.47992	172.17712	464.16394	-425.30484	52.862526	391.19543	-430.27521	-150.51314	235.30592	-380.92615	-230.17296	269.96988	-311.14047	-106.47279	95.791191	-368.78394	219.64986	737.97583	-84.025581	236.33675	479.9722	-134.50966	190.20631	305.88321	-119.83765	161.57921	84.431427	-177.1257	79.438858	37.150425	-219.03528	307.27472	53.407513	-222.87361
238	1.18	213.52438	1657.7109	-302.01776	200.86552	1649.4025	-169.90324	99.366974	1581.6377	-310.99042	91.24263	1566.8077	-174.25014	57.157623	1449.0298	-247.12695	21.411171	1141.5625	-234.83791	189.75099	1372.9661	-249.26364	231.26176	1174.8448	-254.47432	-1.8336062	1260.9045	-182.52356	118.70377	1398.2318	-426.32193	99.868713	1200.1951	-501.27197	149.84221	1047.8463	-504.78299	250.11363	975.86395	-508.63266	327.46155	889.64532	-440.73291	304.47241	875.3338	-504.87274	366.2291	828.8689	-497.89246	115.35269	1390.5673	-69.640564	67.644623	1208.0339	-9.6594944	39.778248	1041.3322	-15.703637	74.349785	920.49799	14.512463	107.0565	811.1629	-40.078133	58.687439	811.81628	14.213819	94.566841	734.9917	23.033957	212.7536	925.79022	-377.01886	226.633	948.14105	-131.65007	15.950672	942.30621	-280.25882	19.543722	940.52515	-207.25168	165.23787	715.79364	-434.98853	176.94998	465.93396	-425.10062	58.249695	392.70209	-429.98907	-143.67218	234.69994	-381.56827	-223.9232	267.51144	-311.96338	-97.263527	95.858734	-370.73822	218.4016	738.0791	-84.055962	232.66408	479.76883	-134.67714	186.05489	305.98947	-119.96912	156.0278	84.480553	-177.12206	73.668655	36.968021	-218.98755	301.68518	53.262314	-222.84117
239	1.185	213.69211	1658.4701	-301.93796	201.05305	1650.0992	-169.90952	99.4161	1582.4543	-310.91855	91.431969	1567.6144	-174.13161	57.303459	1449.8113	-246.73718	21.016008	1142.5668	-234.36827	189.61508	1373.7688	-249.37111	230.97926	1175.6677	-254.51938	-1.8670883	1261.9869	-181.72055	118.10577	1399.2211	-426.23999	97.84713	1200.8835	-500.77545	146.69382	1048.36	-504.31412	245.65172	974.66278	-508.78851	321.45865	886.71613	-441.4852	297.99188	872.96655	-505.28653	359.27795	825.4212	-498.78989	115.89088	1391.5364	-69.466721	69.444534	1208.7355	-9.2902956	42.713692	1041.7896	-15.126472	78.549164	921.22534	14.797961	112.04697	812.23651	-40.240181	64.07106	812.40576	14.387433	100.8858	735.95459	22.91993	212.45985	927.01947	-376.83713	225.99323	948.65796	-131.53079	15.52652	943.1767	-280.30115	19.028116	941.38263	-207.32419	166.21581	717.67615	-435.4549	181.67407	467.98303	-424.88898	63.575657	394.19638	-429.70297	-136.35828	233.90889	-382.26349	-217.53072	264.82669	-312.81021	-87.712624	95.896584	-372.52011	217.0435	737.96808	-83.907364	228.92729	479.5293	-134.61429	181.40692	305.9801	-119.94685	150.49579	84.492828	-176.99945	68.113152	37.208157	-218.9196	296.03763	53.061977	-222.76369
